<svg width="756" height="567" xmlns="http://www.w3.org/2000/svg" xmlns:xlink="http://www.w3.org/1999/xlink" overflow="hidden"><defs><clipPath id="clip0"><rect x="0" y="0" width="756" height="567"/></clipPath></defs><g clip-path="url(#clip0)"><rect x="0" y="0" width="756" height="566.875" fill="#FFFFFF"/><path d="M31 77.1498C31 70.9839 35.9996 65.9854 42.1669 65.9854L175.833 65.9854C182 65.9854 187 70.9839 187 77.1498L187 121.806C187 127.972 182 132.971 175.833 132.971L42.1669 132.971C35.9996 132.971 31 127.972 31 121.806Z" fill="#8FAADC" fill-rule="evenodd"/><text fill="#FFFFFF" font-family="Consolas,Consolas_MSFontService,sans-serif" font-weight="400" font-size="32" transform="matrix(1 0 0 0.99978 73.7202 110)">html</text><path d="M187 144.135C187 137.969 192 132.971 198.167 132.971L330.833 132.971C337 132.971 342 137.969 342 144.135L342 188.792C342 194.957 337 199.956 330.833 199.956L198.167 199.956C192 199.956 187 194.957 187 188.792Z" fill="#8FAADC" fill-rule="evenodd"/><text fill="#FFFFFF" font-family="Consolas,Consolas_MSFontService,sans-serif" font-weight="400" font-size="32" transform="matrix(1 0 0 0.99978 229.049 177)">head</text><path d="M0 0 33.412 0 33.412 77.6471" stroke="#F4B183" stroke-width="4" stroke-miterlimit="8" fill="none" fill-rule="evenodd" transform="matrix(1.83738e-16 1 1.00022 -1.83697e-16 109 132.971)"/><path d="M342 210.954C342 204.88 346.925 199.956 353 199.956L486 199.956C492.075 199.956 497 204.88 497 210.954L497 254.944C497 261.017 492.075 265.941 486 265.941L353 265.941C346.925 265.941 342 261.017 342 254.944Z" fill="#8FAADC" fill-rule="evenodd"/><text fill="#FFFFFF" font-family="Consolas,Consolas_MSFontService,sans-serif" font-weight="400" font-size="32" transform="matrix(1 0 0 0.99978 375.542 244)">title</text><path d="M0 0 33.412 0 33.412 77.6471" stroke="#F4B183" stroke-width="4" stroke-miterlimit="8" fill="none" fill-rule="evenodd" transform="matrix(1.83738e-16 1 1.00022 -1.83697e-16 264 199.956)"/><path d="M497 277.106C497 270.94 502 265.941 508.167 265.941L717.833 265.941C724 265.941 729 270.94 729 277.106L729 321.762C729 327.928 724 332.927 717.833 332.927L508.167 332.927C502 332.927 497 327.928 497 321.762Z" fill="#8FAADC" fill-rule="evenodd"/><text fill="#FFFFFF" font-family="Consolas,Consolas_MSFontService,sans-serif" font-weight="400" font-size="32" transform="matrix(1 0 0 0.99978 515.894 310)">Sample Page</text><path d="M0 0 33.412 0 33.412 77.6471" stroke="#F4B183" stroke-width="4" stroke-miterlimit="8" fill="none" fill-rule="evenodd" transform="matrix(1.83738e-16 1 1.00022 -1.83697e-16 420 265.941)"/><path d="M188 311.098C188 304.932 193 299.934 199.167 299.934L332.833 299.934C339 299.934 344 304.932 344 311.098L344 355.755C344 361.921 339 366.919 332.833 366.919L199.167 366.919C193 366.919 188 361.921 188 355.755Z" fill="#8FAADC" fill-rule="evenodd"/><text fill="#FFFFFF" font-family="Consolas,Consolas_MSFontService,sans-serif" font-weight="400" font-size="32" transform="matrix(1 0 0 0.99978 230.644 344)">body</text><path d="M0 0 200.471 0 200.471 79.2423" stroke="#F4B183" stroke-width="4" stroke-miterlimit="8" fill="none" fill-rule="evenodd" transform="matrix(1.83738e-16 1 1.00022 -1.83697e-16 109 132.971)"/><path d="M342 378.083C342 371.918 347 366.919 353.167 366.919L485.833 366.919C492 366.919 497 371.918 497 378.083L497 422.74C497 428.906 492 433.904 485.833 433.904L353.167 433.904C347 433.904 342 428.906 342 422.74Z" fill="#8FAADC" fill-rule="evenodd"/><text fill="#FFFFFF" font-family="Consolas,Consolas_MSFontService,sans-serif" font-weight="400" font-size="32" transform="matrix(1 0 0 0.99978 410.883 411)">p</text><path d="M0 0 33.4121 0 33.4121 76.0521" stroke="#F4B183" stroke-width="4" stroke-miterlimit="8" fill="none" fill-rule="evenodd" transform="matrix(1.83738e-16 1 1.00022 -1.83697e-16 266 366.919)"/><path d="M497 444.902C497 438.828 501.925 433.904 508 433.904L718 433.904C724.075 433.904 729 438.828 729 444.902L729 488.892C729 494.966 724.075 499.89 718 499.89L508 499.89C501.925 499.89 497 494.966 497 488.892Z" fill="#8FAADC" fill-rule="evenodd"/><text fill="#FFFFFF" font-family="Consolas,Consolas_MSFontService,sans-serif" font-weight="400" font-size="32" transform="matrix(1 0 0 0.99978 507.058 478)">Hello World!</text><path d="M0 0 33.412 0 33.412 77.6471" stroke="#F4B183" stroke-width="4" stroke-miterlimit="8" fill="none" fill-rule="evenodd" transform="matrix(1.83738e-16 1 1.00022 -1.83697e-16 420 433.904)"/></g></svg>